<svg xmlns="http://www.w3.org/2000/svg" viewBox="0 0 560 360" role="img" aria-labelledby="title desc">
  <title id="title">Схема пути клиента</title>
  <desc id="desc">Путь клиента от просмотра портфолио до заявки и записи.</desc>
  <defs>
    <linearGradient id="g" x1="0" y1="0" x2="1" y2="1">
      <stop offset="0" stop-color="#12f7d6"/>
      <stop offset="0.48" stop-color="#ff3d81"/>
      <stop offset="1" stop-color="#7c4dff"/>
    </linearGradient>
    <filter id="s" x="-30%" y="-30%" width="160%" height="160%">
      <feDropShadow dx="0" dy="18" stdDeviation="16" flood-color="#000" flood-opacity="0.42"/>
    </filter>
  </defs>
  <rect width="560" height="360" rx="34" fill="#10091b"/>
  <path d="M78 186C140 82 211 86 280 171s135 83 202-20" fill="none" stroke="url(#g)" stroke-width="8" stroke-linecap="round" opacity="0.7"/>
  <g filter="url(#s)">
    <g transform="translate(48 136)">
      <rect width="112" height="86" rx="22" fill="#1d102e" stroke="#fff" stroke-opacity="0.12"/>
      <circle cx="34" cy="34" r="14" fill="#12f7d6"/>
      <rect x="56" y="26" width="34" height="9" rx="4" fill="#fff" opacity="0.85"/>
      <rect x="22" y="58" width="68" height="8" rx="4" fill="#fff" opacity="0.25"/>
    </g>
    <g transform="translate(224 78)">
      <rect width="112" height="86" rx="22" fill="#1d102e" stroke="#fff" stroke-opacity="0.12"/>
      <path d="M33 30h46v30H33z" fill="#ff3d81"/>
      <path d="M33 30l23 18 23-18" fill="none" stroke="#10091b" stroke-width="5" stroke-linecap="round" stroke-linejoin="round"/>
      <rect x="22" y="66" width="68" height="8" rx="4" fill="#fff" opacity="0.25"/>
    </g>
    <g transform="translate(400 136)">
      <rect width="112" height="86" rx="22" fill="#1d102e" stroke="#fff" stroke-opacity="0.12"/>
      <rect x="28" y="25" width="56" height="40" rx="12" fill="#7c4dff"/>
      <path d="M42 47l10 10 22-25" fill="none" stroke="#fff" stroke-width="6" stroke-linecap="round" stroke-linejoin="round"/>
      <rect x="22" y="72" width="68" height="8" rx="4" fill="#fff" opacity="0.25"/>
    </g>
  </g>
  <text x="104" y="254" text-anchor="middle" fill="#b8a9c9" font-family="Arial" font-size="14">увидел</text>
  <text x="280" y="42" text-anchor="middle" fill="#b8a9c9" font-family="Arial" font-size="14">оставил заявку</text>
  <text x="456" y="254" text-anchor="middle" fill="#b8a9c9" font-family="Arial" font-size="14">записался</text>
</svg>
